<svg viewBox="0 0 512 512" xmlns="http://www.w3.org/2000/svg">
  <path d="M503.227 25.256a23.277 23.277 0 0 0-16.482-16.48A259.607 259.607 0 0 0 419.791 0C350.702 0 285.751 26.902 236.9 75.75c-32.673 32.675-56.019 73.474-67.514 117.987-8.653 33.51-10.446 68.468-5.454 102.585H23.276a23.274 23.274 0 0 0-16.455 39.73l169.137 169.132a23.265 23.265 0 0 0 25.361 5.045 23.275 23.275 0 0 0 14.367-21.501l.002-140.651c12.459 1.826 25.052 2.78 37.682 2.78h.002c69.08 0 134.035-26.905 182.88-75.753 11.326-11.326 21.501-23.648 30.481-36.741.56-.717 1.064-1.46 1.53-2.222 16.162-24.104 28.22-50.814 35.506-79.022 11.151-43.182 10.964-88.778-.542-131.863zM169.14 432.542l-89.678-89.674h89.679l-.001 89.674zm234.199-190.35c-40.057 40.057-93.319 62.118-149.969 62.118a213.293 213.293 0 0 1-41.579-4.09c-13.715-69.108 7.893-141.425 58.024-191.556a215.564 215.564 0 0 1 15.886-14.381l131.987 131.989a210.972 210.972 0 0 1-14.349 15.92zm40.069-56.026L325.693 68.45c28.888-14.324 60.909-21.904 94.098-21.904 13.979 0 27.91 1.373 41.576 4.088 9.185 46.285 2.502 93.998-17.959 135.532z"/>
</svg>
