<svg viewBox="0 0 1024 1024" xmlns="http://www.w3.org/2000/svg">
  <path d="M137.972 933.787c-41.151 0-74.638-33.488-74.638-74.63V237.171c0-41.142 33.488-74.63 74.638-74.63h74.642v66.329h-82.931v638.589h762.966V228.87h-140.98v82.931H685.32V79.61h66.349v82.931h132.686c41.151 0 74.642 33.488 74.642 74.63v621.986c0 41.142-33.492 74.63-74.642 74.63H137.972zM270.662 311.801V79.61h66.349v82.931h290.261v66.329H337.011v82.931zM229.196 411.335h149.281v149.26H229.196zM436.525 411.335h149.282v149.26H436.525zM643.854 411.335h149.281v149.26H643.854zM229.196 618.664h149.281v149.26H229.196zM436.525 618.664h149.282v149.26H436.525z"/>
</svg>
