<svg version="1" xmlns="http://www.w3.org/2000/svg" width="533.333" height="533.333" viewBox="0 0 400.000000 400.000000"><path d="M11.9 19.7c-.4 4-.3 7.5.1 7.8.3.2 5.2.5 11 .6 18.6.5 27.2 3.2 34.7 10.8 4.4 4.6 6.3 10.1 7.9 23.6.8 7.4.9 249.4 0 258.5-.8 9.2-2.6 17-4.4 20-4.1 6.6-9.5 10.6-17.7 13.3-6.8 2.2-9.4 2.5-21.5 2.6l-10.5.1.2 3.2c.1 1.8.2 3.9.2 4.6.1 1 18.8 1.2 95.9 1.1 86.5-.1 105-.5 117.7-2.3 2.2-.3 6-.8 8.5-1.1 6.2-.7 13.7-2.2 25.9-5.1 33.9-8.1 61.6-22.4 83.2-43.2 27.8-26.5 44.5-60.1 49.6-99.7 1-7.9 1-39.2 0-47.5-5.2-42.2-25.7-80.5-57.5-107.3-6.2-5.2-20.6-14.3-29.4-18.6-16.2-7.7-42.9-15.2-63.3-17.6-3.3-.4-7.1-.8-8.5-1-1.4-.2-5.4-.6-9-1-3.6-.3-8.7-.9-11.5-1.2-8.3-.9-201.5-1.5-201.6-.6zM201 38.3c1.4.3 4.8.9 7.5 1.3 2.8.4 5.5.8 6 1 .6.1 2.1.4 3.5.7 19.2 4.1 38.8 13.1 55.5 25.5 8.6 6.4 24.2 22.5 30.1 31.2 2.9 4.1 7 11 9.3 15.4 4.1 7.8 11.4 28 12.5 34.6.3 1.9 1 5.3 1.6 7.5 1.9 7.7.9 6.9-1.9-1.5-8.6-26.1-24.7-45.5-46.4-56-8.6-4.1-11.5-5-26.2-8-17.2-3.6-22.7-3.8-84.2-3.9l-48.1-.1-.1-20.5c0-11.2.4-20.7.8-20.9.4-.3 2.3-.8 4.1-1.1 1.8-.3 3.6-.8 3.9-1 .4-.2 2.5-.6 4.7-.9 2.2-.4 5.1-.9 6.4-1.1 1.4-.3 4.8-.8 7.5-1.1 2.8-.4 7.3-1 10-1.4 5.4-.7 39.4-.5 43.5.3zm-61.9 55.8c5.1 2.8 7.4 6.8 8.7 15.1 1 6.7.8 161.7-.3 166.7-1.9 9.4-8.2 14-20.1 14.8l-7.3.6.1-100.3V90.7l7.2.5c5.2.3 8.6 1.2 11.7 2.9zm87.9 4.5c35.2 6.1 59.6 32.2 66.6 70.9 1.4 7.4 1.2 35.3-.3 43.5-5.2 29.8-22.4 53.4-47.1 64.8-11.2 5.1-21.3 7-36.2 6.7-7.4-.2-14.8-.6-16.5-.9-1.6-.4-5.5-1.1-8.5-1.7-3-.6-5.7-1.5-6-1.9-.3-.5-.5-40.8-.5-89.6l.1-88.9 5.4-1.2c14.5-3.4 30.3-4 43-1.7zm101.5 120.1c-3.8 29.2-14.2 55-30.2 75.4-5.3 6.8-22 22.2-29.8 27.5-20.9 14.1-40.8 21.5-67.5 25.1-7.2 1-35.9 1-43.5 0-3.3-.4-6.7-.8-7.5-.9-1.3-.1-15.4-2.4-26.7-4.5l-3.2-.5V296l51.2-.1c58.3-.1 60.3-.2 75-3 29.9-5.6 51.1-18.8 66.5-41.2 4.9-7 10.9-20.2 13.4-29.4 1.3-4.6 2.4-8.3 2.6-8.3.2 0 .1 2.1-.3 4.7z"/><path d="M209 163v7l-5.8-.6c-12.6-1.4-20.3 6.9-19.6 21.3.2 6.4 3.4 13.3 7.1 15.4 3.8 2.1 10.3 2.4 14.7.5 2-.8 3.6-1.1 3.6-.5 0 .5 1.8.9 4 .9h4v-51h-8v7zm-2.6 13c2.6.9 2.6 1.1 2.6 11.4v10.4l-3.6 2.1c-4.4 2.6-6.4 2.6-9.7.1-4.2-3.3-5.3-12.9-2.2-19.4 2.4-5 7.3-6.8 12.9-4.6zM230.5 170.7c-4.8 2.6-7.2 6.1-8.4 12.3-2.8 14 3.1 23.7 15 24.7 9.5.8 15.2-2.7 18.2-11.2 2.4-7 .8-17.3-3.5-22.6-3.7-4.6-15.6-6.4-21.3-3.2zm13.3 6.1c2.7 2.1 5 9.4 4.5 14.2-1.8 14.7-17.4 14.1-18.7-.7-.9-11.5 7-19 14.2-13.5zM266.4 171c-5.7 2.9-8.6 8.3-8.7 16.3-.2 12.7 4.1 18.1 14.8 18.4 4 .1 6.8-.4 8.4-1.4l2.4-1.5-.6 3.6c-.8 5-4 7.5-9.2 7.1-4.7-.3-7.2-.9-8.1-1.8-.4-.4-1.6-.7-2.6-.7-1.6 0-1.9.6-1.6 3.7.3 3.4.6 3.8 4.3 4.6 6.1 1.3 16.3.2 19.4-2 5.3-4 6-7 6.1-28.1V170h-3.2c-1.8 0-6.4-.3-10.3-.6-5.8-.4-7.7-.2-11.1 1.6zm15.5 5.4c.7.5 1.1 4.2 1.1 10.5v9.8l-3.9 1.8c-7.8 3.5-13.2-.6-13.3-10-.2-8.6 4.4-13.9 11.3-13.2 2 .2 4.1.7 4.8 1.1z"/></svg>